<?xml version="1.0" standalone="no"?><svg xmlns="http://www.w3.org/2000/svg" viewBox="0 0 1440 320"><path fill="#273036" fill-opacity="1" d="M0,160L14.1,144C28.2,128,56,96,85,90.7C112.9,85,141,107,169,144C197.6,181,226,235,254,256C282.4,277,311,267,339,218.7C367.1,171,395,85,424,85.3C451.8,85,480,171,508,176C536.5,181,565,107,593,80C621.2,53,649,75,678,122.7C705.9,171,734,245,762,245.3C790.6,245,819,171,847,122.7C875.3,75,904,53,932,69.3C960,85,988,139,1016,170.7C1044.7,203,1073,213,1101,197.3C1129.4,181,1158,139,1186,138.7C1214.1,139,1242,181,1271,208C1298.8,235,1327,245,1355,261.3C1383.5,277,1412,299,1426,309.3L1440,320L1440,320L1425.9,320C1411.8,320,1384,320,1355,320C1327.1,320,1299,320,1271,320C1242.4,320,1214,320,1186,320C1157.6,320,1129,320,1101,320C1072.9,320,1045,320,1016,320C988.2,320,960,320,932,320C903.5,320,875,320,847,320C818.8,320,791,320,762,320C734.1,320,706,320,678,320C649.4,320,621,320,593,320C564.7,320,536,320,508,320C480,320,452,320,424,320C395.3,320,367,320,339,320C310.6,320,282,320,254,320C225.9,320,198,320,169,320C141.2,320,113,320,85,320C56.5,320,28,320,14,320L0,320Z"></path></svg>